<svg xmlns="http://www.w3.org/2000/svg" version="1.1" xmlns:xlink="http://www.w3.org/1999/xlink" xmlns:svgjs="http://svgjs.dev/svgjs" viewBox="0 0 800 800"><defs><linearGradient x1="50%" y1="0%" x2="50%" y2="100%" id="ffflurry-grad" gradientTransform="rotate(270)"><stop stop-color="hsl(238, 82%, 13%)" stop-opacity="1" offset="0%"></stop><stop stop-color="hsl(1.4, 100%, 67%)" stop-opacity="1" offset="45%"></stop><stop stop-color="hsl(167, 52%, 78%)" stop-opacity="1" offset="100%"></stop></linearGradient></defs><rect width="100%" height="100%" fill="hsl(238, 82%, 13%)"></rect><g fill="url(#ffflurry-grad)"><rect width="353" height="4" x="-143.5" y="140" rx="2" transform="rotate(43, 33, 142)" opacity="0.31"></rect><rect width="398" height="4" x="164" y="256" rx="2" transform="rotate(43, 363, 258)" opacity="0.20"></rect><rect width="342" height="4" x="359" y="278" rx="2" transform="rotate(43, 530, 280)" opacity="0.90"></rect><rect width="262" height="4" x="386" y="72" rx="2" transform="rotate(43, 517, 74)" opacity="0.41"></rect><rect width="270" height="4" x="629" y="354" rx="2" transform="rotate(43, 764, 356)" opacity="1.00"></rect><rect width="326" height="4" x="441" y="506" rx="2" transform="rotate(43, 604, 508)" opacity="0.78"></rect><rect width="197" height="4" x="96.5" y="144" rx="2" transform="rotate(43, 195, 146)" opacity="0.58"></rect><rect width="76" height="4" x="67" y="585" rx="2" transform="rotate(43, 105, 587)" opacity="0.63"></rect><rect width="267" height="4" x="617.5" y="558" rx="2" transform="rotate(43, 751, 560)" opacity="0.23"></rect><rect width="114" height="4" x="368" y="690" rx="2" transform="rotate(43, 425, 692)" opacity="0.52"></rect><rect width="371" height="4" x="161.5" y="173" rx="2" transform="rotate(43, 347, 175)" opacity="0.26"></rect><rect width="273" height="4" x="138.5" y="358" rx="2" transform="rotate(43, 275, 360)" opacity="0.95"></rect><rect width="150" height="4" x="-48" y="277" rx="2" transform="rotate(43, 27, 279)" opacity="0.69"></rect><rect width="98" height="4" x="488" y="631" rx="2" transform="rotate(43, 537, 633)" opacity="0.70"></rect><rect width="126" height="4" x="373" y="316" rx="2" transform="rotate(43, 436, 318)" opacity="0.55"></rect><rect width="397" height="4" x="77.5" y="664" rx="2" transform="rotate(43, 276, 666)" opacity="0.49"></rect><rect width="291" height="4" x="501.5" y="677" rx="2" transform="rotate(43, 647, 679)" opacity="0.88"></rect><rect width="189" height="4" x="-57.5" y="578" rx="2" transform="rotate(43, 37, 580)" opacity="0.52"></rect><rect width="475" height="4" x="-62.5" y="362" rx="2" transform="rotate(43, 175, 364)" opacity="0.40"></rect><rect width="330" height="4" x="233" y="146" rx="2" transform="rotate(43, 398, 148)" opacity="0.14"></rect><rect width="227" height="4" x="145.5" y="51" rx="2" transform="rotate(43, 259, 53)" opacity="0.86"></rect><rect width="44" height="4" x="330" y="689" rx="2" transform="rotate(43, 352, 691)" opacity="0.22"></rect><rect width="364" height="4" x="-77" y="378" rx="2" transform="rotate(43, 105, 380)" opacity="0.95"></rect><rect width="132" height="4" x="42" y="654" rx="2" transform="rotate(43, 108, 656)" opacity="0.22"></rect><rect width="325" height="4" x="-62.5" y="276" rx="2" transform="rotate(43, 100, 278)" opacity="0.48"></rect><rect width="102" height="4" x="671" y="277" rx="2" transform="rotate(43, 722, 279)" opacity="0.46"></rect><rect width="400" height="4" x="1" y="619" rx="2" transform="rotate(43, 201, 621)" opacity="0.87"></rect><rect width="271" height="4" x="74.5" y="279" rx="2" transform="rotate(43, 210, 281)" opacity="0.91"></rect><rect width="83" height="4" x="658.5" y="140" rx="2" transform="rotate(43, 700, 142)" opacity="0.54"></rect><rect width="313" height="4" x="-115.5" y="511" rx="2" transform="rotate(43, 41, 513)" opacity="0.96"></rect><rect width="168" height="4" x="32" y="455" rx="2" transform="rotate(43, 116, 457)" opacity="0.23"></rect><rect width="354" height="4" x="595" y="247" rx="2" transform="rotate(43, 772, 249)" opacity="0.87"></rect><rect width="241" height="4" x="21.5" y="509" rx="2" transform="rotate(43, 142, 511)" opacity="0.10"></rect><rect width="442" height="4" x="166" y="369" rx="2" transform="rotate(43, 387, 371)" opacity="0.29"></rect><rect width="34" height="4" x="484" y="704" rx="2" transform="rotate(43, 501, 706)" opacity="0.96"></rect><rect width="192" height="4" x="356" y="29" rx="2" transform="rotate(43, 452, 31)" opacity="0.23"></rect><rect width="250" height="4" x="11" y="769" rx="2" transform="rotate(43, 136, 771)" opacity="0.30"></rect><rect width="233" height="4" x="322.5" y="515" rx="2" transform="rotate(43, 439, 517)" opacity="0.68"></rect><rect width="42" height="4" x="335" y="444" rx="2" transform="rotate(43, 356, 446)" opacity="0.35"></rect><rect width="307" height="4" x="296.5" y="237" rx="2" transform="rotate(43, 450, 239)" opacity="0.82"></rect><rect width="240" height="4" x="-73" y="334" rx="2" transform="rotate(43, 47, 336)" opacity="0.28"></rect><rect width="400" height="4" x="469" y="475" rx="2" transform="rotate(43, 669, 477)" opacity="0.09"></rect><rect width="430" height="4" x="-182" y="653" rx="2" transform="rotate(43, 33, 655)" opacity="0.96"></rect><rect width="116" height="4" x="319" y="765" rx="2" transform="rotate(43, 377, 767)" opacity="0.18"></rect><rect width="155" height="4" x="425.5" y="769" rx="2" transform="rotate(43, 503, 771)" opacity="0.16"></rect><rect width="59" height="4" x="394.5" y="442" rx="2" transform="rotate(43, 424, 444)" opacity="0.94"></rect><rect width="225" height="4" x="649.5" y="405" rx="2" transform="rotate(43, 762, 407)" opacity="0.45"></rect><rect width="270" height="4" x="643" y="150" rx="2" transform="rotate(43, 778, 152)" opacity="0.37"></rect><rect width="113" height="4" x="-7.5" y="47" rx="2" transform="rotate(43, 49, 49)" opacity="0.52"></rect><rect width="237" height="4" x="308.5" y="589" rx="2" transform="rotate(43, 427, 591)" opacity="0.95"></rect><rect width="182" height="4" x="479" y="443" rx="2" transform="rotate(43, 570, 445)" opacity="0.72"></rect><rect width="274" height="4" x="337" y="632" rx="2" transform="rotate(43, 474, 634)" opacity="0.64"></rect><rect width="217" height="4" x="556.5" y="563" rx="2" transform="rotate(43, 665, 565)" opacity="0.51"></rect><rect width="360" height="4" x="529" y="663" rx="2" transform="rotate(43, 709, 665)" opacity="0.11"></rect><rect width="344" height="4" x="384" y="544" rx="2" transform="rotate(43, 556, 546)" opacity="0.08"></rect><rect width="177" height="4" x="649.5" y="189" rx="2" transform="rotate(43, 738, 191)" opacity="0.65"></rect><rect width="75" height="4" x="261.5" y="293" rx="2" transform="rotate(43, 299, 295)" opacity="0.98"></rect><rect width="296" height="4" x="465" y="276" rx="2" transform="rotate(43, 613, 278)" opacity="0.50"></rect><rect width="199" height="4" x="395.5" y="453" rx="2" transform="rotate(43, 495, 455)" opacity="0.65"></rect><rect width="242" height="4" x="372" y="369" rx="2" transform="rotate(43, 493, 371)" opacity="0.45"></rect><rect width="352" height="4" x="181" y="604" rx="2" transform="rotate(43, 357, 606)" opacity="0.10"></rect><rect width="538" height="4" x="-163" y="143" rx="2" transform="rotate(43, 106, 145)" opacity="0.68"></rect><rect width="285" height="4" x="-119.5" y="401" rx="2" transform="rotate(43, 23, 403)" opacity="0.74"></rect><rect width="38" height="4" x="616" y="124" rx="2" transform="rotate(43, 635, 126)" opacity="0.34"></rect><rect width="64" height="4" x="719" y="470" rx="2" transform="rotate(43, 751, 472)" opacity="0.35"></rect><rect width="494" height="4" x="352" y="48" rx="2" transform="rotate(43, 599, 50)" opacity="0.45"></rect><rect width="254" height="4" x="413" y="204" rx="2" transform="rotate(43, 540, 206)" opacity="0.72"></rect><rect width="71" height="4" x="461.5" y="543" rx="2" transform="rotate(43, 497, 545)" opacity="0.30"></rect><rect width="96" height="4" x="119" y="563" rx="2" transform="rotate(43, 167, 565)" opacity="0.99"></rect><rect width="153" height="4" x="132.5" y="449" rx="2" transform="rotate(43, 209, 451)" opacity="0.10"></rect><rect width="210" height="4" x="-53" y="444" rx="2" transform="rotate(43, 52, 446)" opacity="0.32"></rect><rect width="122" height="4" x="167" y="716" rx="2" transform="rotate(43, 228, 718)" opacity="0.49"></rect><rect width="151" height="4" x="155.5" y="547" rx="2" transform="rotate(43, 231, 549)" opacity="0.42"></rect><rect width="200" height="4" x="186" y="521" rx="2" transform="rotate(43, 286, 523)" opacity="0.27"></rect><rect width="173" height="4" x="631.5" y="341" rx="2" transform="rotate(43, 718, 343)" opacity="0.13"></rect><rect width="146" height="4" x="222" y="469" rx="2" transform="rotate(43, 295, 471)" opacity="0.10"></rect><rect width="221" height="4" x="69.5" y="681" rx="2" transform="rotate(43, 180, 683)" opacity="0.13"></rect><rect width="63" height="4" x="629.5" y="400" rx="2" transform="rotate(43, 661, 402)" opacity="0.16"></rect><rect width="282" height="4" x="131" y="176" rx="2" transform="rotate(43, 272, 178)" opacity="0.44"></rect><rect width="282" height="4" x="-101" y="214" rx="2" transform="rotate(43, 40, 216)" opacity="0.58"></rect><rect width="276" height="4" x="74" y="772" rx="2" transform="rotate(43, 212, 774)" opacity="0.83"></rect><rect width="161" height="4" x="272.5" y="53" rx="2" transform="rotate(43, 353, 55)" opacity="0.71"></rect><rect width="192" height="4" x="479" y="358" rx="2" transform="rotate(43, 575, 360)" opacity="0.84"></rect><rect width="175" height="4" x="645.5" y="48" rx="2" transform="rotate(43, 733, 50)" opacity="0.54"></rect><rect width="305" height="4" x="-33.5" y="715" rx="2" transform="rotate(43, 119, 717)" opacity="0.74"></rect><rect width="75" height="4" x="5.5" y="748" rx="2" transform="rotate(43, 43, 750)" opacity="0.92"></rect><rect width="308" height="4" x="287" y="109" rx="2" transform="rotate(43, 441, 111)" opacity="0.48"></rect><rect width="245" height="4" x="479.5" y="189" rx="2" transform="rotate(43, 602, 191)" opacity="0.68"></rect><rect width="267" height="4" x="644.5" y="308" rx="2" transform="rotate(43, 778, 310)" opacity="0.54"></rect><rect width="258" height="4" x="240" y="522" rx="2" transform="rotate(43, 369, 524)" opacity="0.15"></rect><rect width="294" height="4" x="532" y="230" rx="2" transform="rotate(43, 679, 232)" opacity="0.86"></rect><rect width="202" height="4" x="189" y="596" rx="2" transform="rotate(43, 290, 598)" opacity="0.26"></rect><rect width="208" height="4" x="557" y="326" rx="2" transform="rotate(43, 661, 328)" opacity="0.28"></rect><rect width="260" height="4" x="23" y="46" rx="2" transform="rotate(43, 153, 48)" opacity="0.46"></rect><rect width="166" height="4" x="688" y="663" rx="2" transform="rotate(43, 771, 665)" opacity="0.08"></rect><rect width="285" height="4" x="144.5" y="755" rx="2" transform="rotate(43, 287, 757)" opacity="0.15"></rect><rect width="383" height="4" x="399.5" y="730" rx="2" transform="rotate(43, 591, 732)" opacity="0.18"></rect><rect width="315" height="4" x="135.5" y="407" rx="2" transform="rotate(43, 293, 409)" opacity="0.79"></rect><rect width="200" height="4" x="618" y="760" rx="2" transform="rotate(43, 718, 762)" opacity="0.74"></rect><rect width="70" height="4" x="466" y="157" rx="2" transform="rotate(43, 501, 159)" opacity="0.12"></rect><rect width="229" height="4" x="33.5" y="223" rx="2" transform="rotate(43, 148, 225)" opacity="0.55"></rect><rect width="46" height="4" x="581" y="610" rx="2" transform="rotate(43, 604, 612)" opacity="0.93"></rect></g></svg>